<svg xmlns="http://www.w3.org/2000/svg" xmlns:xlink="http://www.w3.org/1999/xlink" width="44.001" height="29.191" viewBox="0 0 44.001 29.191">
  <defs>
    <clipPath id="clip-path">
      <rect id="Rectangle_1919" data-name="Rectangle 1919" width="44.001" height="29.191" />
    </clipPath>
  </defs>
  <g id="Group_2145" data-name="Group 2145" transform="translate(0 0)">
    <g id="Group_2144" data-name="Group 2144" transform="translate(0 0)" clip-path="url(#clip-path)">
      <path id="Path_634" data-name="Path 634" d="M18.556,6.247a1.459,1.459,0,0,0-.014-.266,1.428,1.428,0,0,0-.082-.251l-.043-.1a1.376,1.376,0,0,0-.115-.254,1.58,1.58,0,0,0-.184-.208L18.07,5.12c-.038-.039-.076-.088-.113-.136l-.024-.034a.558.558,0,0,1-.108-.06.667.667,0,0,1-.088-.074L10.156.249A1.688,1.688,0,0,0,9.275,0a1.774,1.774,0,0,0-.419.053,1.715,1.715,0,0,0-1.25,2.079,1.7,1.7,0,0,0,.78,1.058l3.568,2.148-1.566.443a26.477,26.477,0,0,0-5.7,2.244,12.884,12.884,0,0,0-2.37,1.726C1.033,10.941-.909,13.235.48,15.2a2.809,2.809,0,0,0,2.054,1.138,4.892,4.892,0,0,1-.482-.742l-.024-.05A2.579,2.579,0,0,1,1.8,13.7a3.391,3.391,0,0,1,1.75-1.837,29.259,29.259,0,0,1,8.18-2.912L12.883,8.7l-2.4,3.142a1.717,1.717,0,0,0,2.728,2.084l5-6.551a.553.553,0,0,1,.046-.088l.06-.074a.214.214,0,0,0,.046-.1,1.288,1.288,0,0,1,.053-.163,2.071,2.071,0,0,0,.122-.325,1.275,1.275,0,0,0,.015-.242l.215-.031h-.215Z" transform="translate(0 0)" />
      <path id="Path_635" data-name="Path 635" d="M32.9,8.625h0a2.808,2.808,0,0,0-2.052-1.138,4.978,4.978,0,0,1,.482.742,2.624,2.624,0,0,1,.247,1.9,3.376,3.376,0,0,1-1.75,1.836,29.275,29.275,0,0,1-8.182,2.914l-1.15.254,2.4-3.142A1.716,1.716,0,0,0,20.165,9.9l-5,6.551a.468.468,0,0,1-.055.1.5.5,0,0,1-.052.067.2.2,0,0,0-.045.088,1.3,1.3,0,0,1-.057.175l-.026.06a.914.914,0,0,0-.108.525v.1a1.533,1.533,0,0,0,.012.282,1.434,1.434,0,0,0,.084.251l.038.093a1.531,1.531,0,0,0,.118.261,1.587,1.587,0,0,0,.192.216,1.792,1.792,0,0,1,.143.161l.036.05a.474.474,0,0,1,.112.062.525.525,0,0,1,.1.089l7.564,4.548a1.7,1.7,0,0,0,1.3.2,1.68,1.68,0,0,0,1.054-.781,1.71,1.71,0,0,0-.582-2.356l-3.57-2.148,1.569-.445a26.392,26.392,0,0,0,5.7-2.242,12.828,12.828,0,0,0,2.373-1.726c1.281-1.192,3.225-3.484,1.836-5.448" transform="translate(10.626 5.368)" />
      <path id="Path_636" data-name="Path 636" d="M31.3,6.451C27.218,3.992,20.854,2.554,13.842,2.5a1.729,1.729,0,0,0-1.731,1.705,1.718,1.718,0,0,0,1.705,1.729c6.319.046,12.193,1.338,15.714,3.456A1.716,1.716,0,0,0,31.3,6.451" transform="translate(8.684 1.794)" />
      <path id="Path_637" data-name="Path 637" d="M20.313,14c-6.279-.015-12.172-1.265-15.764-3.347a1.7,1.7,0,0,0-.855-.234,1.756,1.756,0,0,0-.445.058,1.717,1.717,0,0,0-.421,3.146c4.152,2.406,10.522,3.793,17.478,3.81A1.717,1.717,0,1,0,20.313,14" transform="translate(1.414 7.469)" />
    </g>
  </g>
</svg>
