<?xml version="1.0" encoding="utf-8"?>
<!--Generator: Adobe Illustrator 27.4.1, SVG Export Plug-In . SVG Version: 6.00 Build 0)-->
<svg version="1.1" id="alert_svg__레이어_1" xmlns="http://www.w3.org/2000/svg" xmlns:xlink="http://www.w3.org/1999/xlink" x="0px" y="0px" viewBox="0 0 60 60" style="enable-background:new 0 0 60 60;" xml:space="preserve">
  <path d="M29.93,0.43c-16.57,0-30,13.43-30,30s13.43,30,30,30c16.57,0,30-13.43,30-30S46.5,0.43,29.93,0.43z M29.93,49.57
	c-1.71,0-3.1-1.39-3.1-3.1s1.39-3.1,3.1-3.1c1.71,0,3.1,1.39,3.1,3.1S31.65,49.57,29.93,49.57z M33.04,34.05
	c0,1.71-1.39,3.1-3.1,3.1c-1.71,0-3.1-1.39-3.1-3.1V14.39c0-1.71,1.39-3.1,3.1-3.1c1.71,0,3.1,1.39,3.1,3.1V34.05z"/>
</svg>
