<svg xmlns="http://www.w3.org/2000/svg" width="72" height="72"><defs><clipPath id="a"><path fill="#fff" d="M.194.194h72v72h-72z" data-name="Rectangle 1216"/></clipPath><clipPath id="b"><path fill="#fff" d="M0 0h67.75v46.86H0z" data-name="Rectangle 1218"/></clipPath></defs><g data-name="Group 1334"><g data-name="Group 1333"><g clip-path="url(#a)" data-name="Group 1332" transform="translate(-.194 -.194)"><g data-name="Group 1337"><g clip-path="url(#b)" data-name="Group 1336" transform="translate(2.319 12.764)"><path fill="#fff" d="M27.906 46.858h-.039a4.028 4.028 0 0 1-2.978-1.355L1.016 18.645a4.032 4.032 0 1 1 6.03-5.355l20.918 23.528L60.752 1.297a4.033 4.033 0 0 1 5.93 5.468l-35.811 38.8a4.041 4.041 0 0 1-2.965 1.3" data-name="Path 538"/></g></g></g></g><path fill="none" d="M0 0h72v72H0z" data-name="Rectangle 1217"/></g></svg>