<svg data-name="icon/filled/editor/edit" xmlns="http://www.w3.org/2000/svg" width="21" height="21"><defs><clipPath id="a"><path data-name="icon/filled/editor/edit (clip mask)" fill="none" d="M0 0h21v21H0z"/></clipPath></defs><path data-name="icon/filled/editor/edit (clip mask)" fill="none" d="M0 0h21v21H0z"/><g data-name="icon/filled/editor/edit"><g data-name="icon/filled/editor/edit (clip group)" clip-path="url(#a)"><path data-name="icon/filled/editor/edit (style)" fill="none" d="M0 0h21v21H0z"/><path d="M4.63 17.063a.834.834 0 00.123-.01l3.449-.6a.2.2 0 00.109-.057l8.693-8.693a.2.2 0 000-.289l-3.408-3.417a.208.208 0 00-.291 0l-8.694 8.694a.209.209 0 00-.057.109l-.6 3.449a.687.687 0 00.193.611.7.7 0 00.488.2z" fill="#797979"/></g></g></svg>