<svg data-name="icon/outlined/suggested/close" xmlns="http://www.w3.org/2000/svg" width="14" height="14"><defs><clipPath id="a"><path data-name="icon/outlined/suggested/close (clip mask)" fill="none" d="M0 0h14v14H0z"/></clipPath></defs><path data-name="icon/outlined/suggested/close (clip mask)" fill="none" d="M0 0h14v14H0z"/><g data-name="icon/outlined/suggested/close"><g data-name="icon/outlined/suggested/close (clip group)" clip-path="url(#a)"><path data-name="icon/outlined/suggested/close (style)" fill="none" d="M0 0h14v14H0z"/><path d="M7.708 7l3.589-4.278a.109.109 0 00-.083-.179h-1.091a.223.223 0 00-.168.078L6.995 6.15l-2.96-3.529a.218.218 0 00-.169-.078H2.775a.109.109 0 00-.083.179L6.281 7l-3.589 4.278a.109.109 0 00.083.179h1.091a.223.223 0 00.168-.078l2.96-3.529 2.96 3.529a.219.219 0 00.168.078h1.092a.109.109 0 00.083-.179z" fill="#d895ff"/></g></g></svg>