<?xml version="1.0" encoding="UTF-8"?>
<svg id="logo_svg___레이어_1" data-name="레이어 1" xmlns="http://www.w3.org/2000/svg" viewBox="0 0 123.59 20.46">
  <path d="m9.62,15.94c1.55,0,2.85-.71,3.77-2.52.11-.24.33-.31.55-.2l3.48,2.08c.18.08.26.35.15.63-1.78,2.87-4.48,4.52-7.77,4.52C4.37,20.46,0,15.9,0,10.24S4.37.02,9.81.02c3.29,0,5.99,1.61,7.77,4.56.11.2.04.47-.15.59l-3.48,2.08c-.15.08-.44,0-.55-.2-.93-1.81-2.22-2.48-3.77-2.48-2.59,0-4.62,2.52-4.62,5.66s2.04,5.7,4.62,5.7Z"/>
  <path d="m36.7,4.93c-.04.24-.26.31-.44.28-3.59-1.3-6.66.83-6.66,4.09v10.42c0,.2-.22.35-.41.35h-4.62c-.19,0-.33-.16-.33-.35V.8c0-.24.15-.43.33-.43h4.62c.19,0,.41.2.41.43v1.3c1-1.3,3.55-2.63,7.1-1.89.19.04.3.2.3.39l-.3,4.32Z"/>
  <path d="m58.68,12.28h-13.39c.63,2.24,2.37,3.81,4.51,3.81,1.55,0,2.92-.71,3.88-2.28.15-.24.41-.24.59-.12l3.26,2.04c.15.16.15.47.07.63-1.7,2.44-4.66,4.09-7.81,4.09-5.44,0-9.81-4.56-9.81-10.22S44.36.02,49.8.02c5.85,0,9.99,5.46,9.36,11.79-.04.28-.22.47-.48.47Zm-4.85-4.32c-.3-2.08-2.07-3.54-4.03-3.54-2.07,0-3.77,1.45-4.48,3.54h8.51Z"/>
  <path d="m107.05,20.46h-32.93c-5.41,0-9.81-4.4-9.81-9.81v-.85C64.32,4.4,68.72,0,74.13,0h32.93c5.41,0,9.81,4.4,9.81,9.81v.85c0,5.41-4.4,9.81-9.81,9.81ZM74.13,4.11c-3.14,0-5.7,2.55-5.7,5.69v.85c0,3.14,2.55,5.7,5.7,5.7h32.93c3.14,0,5.7-2.55,5.7-5.7v-.85c0-3.14-2.55-5.69-5.7-5.69h-32.93Z"/>
  <path d="m123.59,17.01c0,1.44-1.1,2.6-2.45,2.6s-2.42-1.16-2.42-2.6,1.07-2.6,2.42-2.6,2.45,1.16,2.45,2.6Z"/>
</svg>
